<svg width="740.757470703125px" height="122.021240234375px" xmlns="http://www.w3.org/2000/svg" viewBox="-120.37873535156251 13.9893798828125 740.757470703125 122.021240234375" style="background: rgba(0, 0, 0, 0);" preserveAspectRatio="xMidYMid"><defs><linearGradient id="editing-outline-gradient" x1="-0.41354545764260087" x2="1.4135454576426008" y1="0.09326335692419985" y2="0.9067366430758002"><stop offset="0" stop-color="#ee4208"></stop><stop offset="1" stop-color="#4139ff"></stop></linearGradient><filter id="editing-outline" x="-100%" y="-100%" width="300%" height="300%"><feMorphology in="SourceGraphic" operator="dilate" radius="1" result="outline"></feMorphology><feComposite operator="out" in="outline" in2="SourceAlpha"></feComposite></filter></defs><g filter="url(#editing-outline)"><g transform="translate(-15.024999976158142, 104.46218872070312)"><path d="M7.30-9.15L1.54-9.15L1.54-9.15Q1.15-10.56 1.15-12.26L1.15-12.26L1.15-12.26Q1.15-13.95 2.37-15.23L2.37-15.23L2.37-15.23Q3.58-16.51 5.82-16.51L5.82-16.51L8.58-16.51L9.98-24.77L3.52-24.77L3.52-24.77Q3.14-26.18 3.14-27.90L3.14-27.90L3.14-27.90Q3.14-29.63 4.35-30.88L4.35-30.88L4.35-30.88Q5.57-32.13 7.81-32.13L7.81-32.13L11.20-32.13L12.22-38.34L12.22-38.34Q12.93-42.24 16.45-42.24L16.45-42.24L16.45-42.24Q17.86-42.24 19.71-41.47L19.71-41.47L18.24-32.13L25.34-32.13L26.37-38.34L26.37-38.34Q26.69-40.19 27.78-41.22L27.78-41.22L27.78-41.22Q28.86-42.24 30.46-42.24L30.46-42.24L30.46-42.24Q32.06-42.24 33.79-41.47L33.79-41.47L32.38-32.13L38.46-32.13L38.46-32.13Q38.78-30.66 38.78-28.96L38.78-28.96L38.78-28.96Q38.78-27.26 37.60-26.02L37.60-26.02L37.60-26.02Q36.42-24.77 34.18-24.77L34.18-24.77L31.23-24.77L29.95-16.51L36.42-16.51L36.42-16.51Q36.80-15.04 36.80-13.34L36.80-13.34L36.80-13.34Q36.80-11.65 35.58-10.40L35.58-10.40L35.58-10.40Q34.37-9.15 32.13-9.15L32.13-9.15L28.86-9.15L28.10-3.90L28.10-3.90Q27.84-2.05 26.43-1.02L26.43-1.02L26.43-1.02Q25.02 0 23.33 0L23.33 0L23.33 0Q21.63 0 20.03-0.77L20.03-0.77L21.50-9.15L14.72-9.15L13.95-3.90L13.95-3.90Q13.70-2.05 12.29-1.02L12.29-1.02L12.29-1.02Q10.88 0 9.18 0L9.18 0L9.18 0Q7.49 0 5.89-0.77L5.89-0.77L7.30-9.15ZM17.09-24.77L15.87-16.51L22.72-16.51L24.13-24.77L17.09-24.77ZM52.99 0.83L48.90 0.70L48.90 0.70Q46.91 0.64 44.83 0.64L44.83 0.64L44.83 0.64Q42.75 0.64 40.70 0.90L40.70 0.90L40.70 0.90Q40.45-0.13 40.45-1.34L40.45-1.34L40.45-1.34Q40.45-3.90 41.89-5.44L41.89-5.44L41.89-5.44Q43.33-6.98 45.57-6.98L45.57-6.98L49.02-6.98L54.40-31.17L54.40-31.17Q52.42-29.18 48.32-29.18L48.32-29.18L48.32-29.18Q46.27-29.18 44.67-31.10L44.67-31.10L44.67-31.10Q43.07-32.90 42.82-35.46L42.82-35.46L42.82-35.46Q52.29-37.12 66.43-43.46L66.43-43.46L68.48-41.02L62.27-6.98L63.87-6.98L63.87-6.98Q67.71-6.98 69.70-7.68L69.70-7.68L69.70-7.68Q70.53-6.27 70.53-3.97L70.53-3.97L70.53-3.97Q70.53-1.66 68.83-0.29L68.83-0.29L68.83-0.29Q67.14 1.09 64.32 1.09L64.32 1.09L64.32 1.09Q58.62 1.09 52.99 0.83L52.99 0.83ZM75.58-15.23L75.58-15.23L75.58-15.23Q75.58-28.16 81.66-35.84L81.66-35.84L81.66-35.84Q87.74-43.52 98.18-43.52L98.18-43.52L98.18-43.52Q103.74-43.52 106.94-39.36L106.94-39.36L106.94-39.36Q110.14-35.20 110.14-28.26L110.14-28.26L110.14-28.26Q110.14-21.31 108.58-15.90L108.58-15.90L108.58-15.90Q107.01-10.50 104.19-6.66L104.19-6.66L104.19-6.66Q98.30 1.34 88.51 1.34L88.51 1.34L88.51 1.34Q81.92 1.34 78.75-2.72L78.75-2.72L78.75-2.72Q75.58-6.78 75.58-15.23ZM86.91-10.88L86.91-10.88L86.91-10.88Q86.91-4.42 89.02-4.42L89.02-4.42L89.02-4.42Q90.94-4.42 92.70-6.66L92.70-6.66L92.70-6.66Q94.46-8.90 95.87-12.67L95.87-12.67L95.87-12.67Q98.88-20.93 98.88-31.17L98.88-31.17L98.88-31.17Q98.88-34.62 98.34-36.19L98.34-36.19L98.34-36.19Q97.79-37.76 96.35-37.76L96.35-37.76L96.35-37.76Q94.91-37.76 93.22-35.26L93.22-35.26L93.22-35.26Q91.52-32.77 90.11-28.86L90.11-28.86L90.11-28.86Q86.91-19.97 86.91-10.88ZM114.24-15.23L114.24-15.23L114.24-15.23Q114.24-28.16 120.32-35.84L120.32-35.84L120.32-35.84Q126.40-43.52 136.83-43.52L136.83-43.52L136.83-43.52Q142.40-43.52 145.60-39.36L145.60-39.36L145.60-39.36Q148.80-35.20 148.80-28.26L148.80-28.26L148.80-28.26Q148.80-21.31 147.23-15.90L147.23-15.90L147.23-15.90Q145.66-10.50 142.85-6.66L142.85-6.66L142.85-6.66Q136.96 1.34 127.17 1.34L127.17 1.34L127.17 1.34Q120.58 1.34 117.41-2.72L117.41-2.72L117.41-2.72Q114.24-6.78 114.24-15.23ZM125.57-10.88L125.57-10.88L125.57-10.88Q125.57-4.42 127.68-4.42L127.68-4.42L127.68-4.42Q129.60-4.42 131.36-6.66L131.36-6.66L131.36-6.66Q133.12-8.90 134.53-12.67L134.53-12.67L134.53-12.67Q137.54-20.93 137.54-31.17L137.54-31.17L137.54-31.17Q137.54-34.62 136.99-36.19L136.99-36.19L136.99-36.19Q136.45-37.76 135.01-37.76L135.01-37.76L135.01-37.76Q133.57-37.76 131.87-35.26L131.87-35.26L131.87-35.26Q130.18-32.77 128.77-28.86L128.77-28.86L128.77-28.86Q125.57-19.97 125.57-10.88ZM193.41-26.56L193.41-26.56L193.41-26.56Q193.41 0.70 163.84 0.70L163.84 0.70L163.84 0.70Q159.10 0.70 151.30-0.45L151.30-0.45L158.46-38.27L158.46-38.27Q158.98-40.83 159.30-42.30L159.30-42.30L159.30-42.30Q169.02-43.01 173.34-43.01L173.34-43.01L173.34-43.01Q177.66-43.01 181.63-42.11L181.63-42.11L181.63-42.11Q185.60-41.22 188.22-39.23L188.22-39.23L188.22-39.23Q193.41-35.33 193.41-26.56ZM180.22-28.93L180.22-28.93L180.22-28.93Q180.22-38.46 173.38-38.46L173.38-38.46L172.74-38.46L172.74-38.46Q172.42-38.46 172.10-38.40L172.10-38.40L165.50-4.03L165.50-4.03Q165.76-3.90 166.02-3.90L166.02-3.90L166.53-3.90L166.53-3.90Q168.90-3.90 171.36-5.38L171.36-5.38L171.36-5.38Q173.82-6.85 175.74-9.86L175.74-9.86L175.74-9.86Q180.22-16.83 180.22-28.93ZM199.46-1.92L199.46-1.92L199.46-1.92Q197.95-3.58 197.28-6.21L197.28-6.21L197.28-6.21Q196.61-8.83 196.61-13.12L196.61-13.12L196.61-13.12Q196.61-17.41 198.08-21.31L198.08-21.31L198.08-21.31Q199.55-25.22 202.24-28.03L202.24-28.03L202.24-28.03Q207.74-33.92 216.83-33.92L216.83-33.92L216.83-33.92Q220.10-33.92 222.46-32.83L222.46-32.83L233.41-33.92L228.67-8.96L228.67-8.96Q228.48-8.19 228.48-6.78L228.48-6.78L228.48-6.78Q228.48-5.38 229.34-4.48L229.34-4.48L229.34-4.48Q230.21-3.58 231.49-3.46L231.49-3.46L231.49-3.46Q230.85-1.28 228.51 0L228.51 0L228.51 0Q226.18 1.28 223.55 1.28L223.55 1.28L223.55 1.28Q220.93 1.28 219.17 0.29L219.17 0.29L219.17 0.29Q217.41-0.70 216.90-2.37L216.90-2.37L216.90-2.37Q215.87-0.77 213.70 0.26L213.70 0.26L213.70 0.26Q211.52 1.28 208.61 1.28L208.61 1.28L208.61 1.28Q205.70 1.28 203.33 0.51L203.33 0.51L203.33 0.51Q200.96-0.26 199.46-1.92ZM212.96-27.90L212.96-27.90L212.96-27.90Q212.22-26.75 211.58-24.80L211.58-24.80L211.58-24.80Q210.94-22.85 209.89-17.63L209.89-17.63L209.89-17.63Q208.83-12.42 208.83-8.70L208.83-8.70L208.83-8.70Q208.83-4.99 209.41-3.90L209.41-3.90L209.41-3.90Q209.98-2.82 211.01-2.82L211.01-2.82L211.01-2.82Q213.06-2.82 214.56-4.77L214.56-4.77L214.56-4.77Q216.06-6.72 216.64-10.18L216.64-10.18L220.03-28.93L220.03-28.93Q218.69-30.08 217.12-30.08L217.12-30.08L217.12-30.08Q215.55-30.08 214.62-29.57L214.62-29.57L214.62-29.57Q213.70-29.06 212.96-27.90ZM257.22-7.23L257.22-7.23L257.22-7.23Q253.89-3.78 247.81-3.78L247.81-3.78L247.81-3.78Q240.19-3.78 238.59-9.34L238.59-9.34L238.59-9.34Q238.08-11.01 238.08-12.86L238.08-12.86L238.08-12.86Q238.08-14.72 238.46-16.64L238.46-16.64L241.47-32.64L254.46-33.92L250.94-15.30L250.94-15.30Q250.82-14.46 250.62-13.57L250.62-13.57L250.62-13.57Q250.43-12.67 250.43-11.74L250.43-11.74L250.43-11.74Q250.43-10.82 250.75-10.21L250.75-10.21L250.75-10.21Q251.07-9.60 251.52-9.22L251.52-9.22L251.52-9.22Q252.29-8.70 253.66-8.70L253.66-8.70L253.66-8.70Q255.04-8.70 256.22-10.37L256.22-10.37L256.22-10.37Q257.41-12.03 257.98-14.91L257.98-14.91L261.50-32.64L274.11-33.92L269.31-8.77L269.31-8.77Q266.94 3.52 262.08 8.38L262.08 8.38L262.08 8.38Q259.58 10.88 256.35 11.87L256.35 11.87L256.35 11.87Q253.12 12.86 248.96 12.86L248.96 12.86L248.96 12.86Q242.24 12.86 238.40 10.75L238.40 10.75L238.40 10.75Q234.56 8.64 234.56 5.12L234.56 5.12L234.56 5.12Q234.56 2.50 236.54 0.99L236.54 0.99L236.54 0.99Q238.53-0.51 241.60-0.51L241.60-0.51L241.60-0.51Q244.29-0.51 246.34 0.64L246.34 0.64L246.34 0.64Q247.55 1.34 248.13 2.24L248.13 2.24L248.13 2.24Q246.66 3.52 246.66 5.63L246.66 5.63L246.66 5.63Q246.66 8.45 249.22 8.45L249.22 8.45L249.22 8.45Q253.44 8.45 255.87-1.28L255.87-1.28L255.87-1.28Q256.58-4.16 257.22-7.23ZM295.55-22.46L295.55-22.46L295.55-22.46Q296.45-24.83 296.45-26.88L296.45-26.88L296.45-26.88Q296.45-30.66 293.38-30.66L293.38-30.66L293.38-30.66Q291.78-30.66 290.46-29.22L290.46-29.22L290.46-29.22Q289.15-27.78 289.15-25.98L289.15-25.98L289.15-25.98Q289.15-24.70 290.18-23.68L290.18-23.68L290.18-23.68Q291.65-22.27 295.42-19.97L295.42-19.97L295.42-19.97Q299.20-17.66 300.64-15.78L300.64-15.78L300.64-15.78Q302.08-13.89 302.08-11.30L302.08-11.30L302.08-11.30Q302.08-8.70 300.83-6.34L300.83-6.34L300.83-6.34Q299.58-3.97 297.34-2.30L297.34-2.30L297.34-2.30Q292.54 1.28 284.86 1.28L284.86 1.28L284.86 1.28Q280.70 1.28 277.50-0.90L277.50-0.90L277.50-0.90Q274.30-3.01 274.30-5.50L274.30-5.50L274.30-5.50Q274.30-8 276.13-9.47L276.13-9.47L276.13-9.47Q277.95-10.94 280.64-10.94L280.64-10.94L280.64-10.94Q283.33-10.94 284.99-9.92L284.99-9.92L284.99-9.92Q284.16-7.81 284.16-6.40L284.16-6.40L284.16-6.40Q284.16-2.18 287.74-2.18L287.74-2.18L287.74-2.18Q289.28-2.18 290.30-3.14L290.30-3.14L290.30-3.14Q291.33-4.10 291.33-5.76L291.33-5.76L291.33-5.76Q291.33-9.02 285.82-12.48L285.82-12.48L285.82-12.48Q281.34-15.42 280.32-16.58L280.32-16.58L280.32-16.58Q278.59-18.62 278.59-21.18L278.59-21.18L278.59-21.18Q278.59-23.74 279.81-26.18L279.81-26.18L279.81-26.18Q281.02-28.61 283.26-30.34L283.26-30.34L283.26-30.34Q287.94-33.92 296.06-33.92L296.06-33.92L296.06-33.92Q300.22-33.92 302.69-32.26L302.69-32.26L302.69-32.26Q305.15-30.59 305.15-27.78L305.15-27.78L305.15-27.78Q305.15-24.96 303.46-23.36L303.46-23.36L303.46-23.36Q301.76-21.76 298.69-21.76L298.69-21.76L298.69-21.76Q296.58-21.76 295.55-22.46ZM308.48-15.62L308.48-15.62L308.48-15.62Q308.48-27.71 314.75-35.33L314.75-35.33L314.75-35.33Q321.41-43.58 332.99-43.58L332.99-43.58L332.99-43.58Q341.38-43.58 345.60-39.52L345.60-39.52L345.60-39.52Q349.82-35.46 349.82-26.88L349.82-26.88L349.82-26.88Q349.82-13.82 343.17-6.21L343.17-6.21L343.17-6.21Q336.58 1.28 325.50 1.28L325.50 1.28L325.50 1.28Q316.86 1.28 312.67-3.04L312.67-3.04L312.67-3.04Q308.48-7.36 308.48-15.62ZM325.31-28.86L325.31-28.86L325.31-28.86Q322.43-17.34 322.43-8.26L322.43-8.26L322.43-8.26Q322.43-6.08 323.17-4.67L323.17-4.67L323.17-4.67Q323.90-3.26 325.86-3.26L325.86-3.26L325.86-3.26Q327.81-3.26 329.02-4.19L329.02-4.19L329.02-4.19Q330.24-5.12 331.20-7.23L331.20-7.23L331.20-7.23Q332.74-10.69 334.18-18.02L334.18-18.02L334.18-18.02Q335.62-25.34 335.74-28.38L335.74-28.38L335.74-28.38Q335.87-31.42 335.87-33.73L335.87-33.73L335.87-33.73Q335.87-36.03 335.17-37.50L335.17-37.50L335.17-37.50Q334.46-38.98 332.58-38.98L332.58-38.98L332.58-38.98Q330.69-38.98 329.41-37.82L329.41-37.82L329.41-37.82Q327.04-35.65 325.31-28.86ZM377.92-37.12L377.92-37.12L377.92-37.12Q378.82-38.66 378.82-40.32L378.82-40.32L378.82-40.32Q378.82-43.26 377.02-43.26L377.02-43.26L377.02-43.26Q374.27-43.26 373.12-37.63L373.12-37.63L372.16-32.64L377.98-32.64L377.60-29.76L371.58-29.76L365.82 0L352.90 1.28L359.04-29.76L354.50-29.76L355.07-32.64L359.55-32.64L360.90-37.70L360.90-37.70Q362.05-42.37 366.98-44.54L366.98-44.54L366.98-44.54Q370.56-46.08 376.58-46.08L376.58-46.08L376.58-46.08Q382.59-46.08 385.28-44.54L385.28-44.54L385.28-44.54Q387.97-43.01 387.97-40.96L387.97-40.96L387.97-40.96Q387.97-38.91 386.37-37.63L386.37-37.63L386.37-37.63Q384.77-36.35 382.98-36.35L382.98-36.35L382.98-36.35Q379.46-36.35 377.92-37.12ZM412.22-13.25L412.22-13.25L412.22-13.25Q413.89-12.03 413.89-9.44L413.89-9.44L413.89-9.44Q413.89-6.85 412.77-5.02L412.77-5.02L412.77-5.02Q411.65-3.20 409.47-1.79L409.47-1.79L409.47-1.79Q404.80 1.22 396.64 1.22L396.64 1.22L396.64 1.22Q388.48 1.22 384.03-3.04L384.03-3.04L384.03-3.04Q379.58-7.30 379.58-14.85L379.58-14.85L379.58-14.85Q379.58-25.54 385.15-33.66L385.15-33.66L385.15-33.66Q389.38-39.68 396.93-42.24L396.93-42.24L396.93-42.24Q400.83-43.52 404.67-43.52L404.67-43.52L404.67-43.52Q408.51-43.52 410.88-43.01L410.88-43.01L410.88-43.01Q413.25-42.50 415.04-41.47L415.04-41.47L415.04-41.47Q418.94-39.23 418.94-35.65L418.94-35.65L418.94-35.65Q418.94-32.38 415.87-29.95L415.87-29.95L415.87-29.95Q413.06-27.78 410.75-27.78L410.75-27.78L410.75-27.78Q408.45-27.78 407.49-28.10L407.49-28.10L407.49-28.10Q407.74-30.40 407.74-31.90L407.74-31.90L407.74-31.90Q407.74-33.41 407.68-34.50L407.68-34.50L407.68-34.50Q407.62-35.58 407.30-36.61L407.30-36.61L407.30-36.61Q406.66-38.98 404.70-38.98L404.70-38.98L404.70-38.98Q402.75-38.98 400.80-37.15L400.80-37.15L400.80-37.15Q398.85-35.33 397.18-32.26L397.18-32.26L397.18-32.26Q393.41-25.28 393.41-17.02L393.41-17.02L393.41-17.02Q393.41-13.06 395.65-10.78L395.65-10.78L395.65-10.78Q397.89-8.51 402.69-8.51L402.69-8.51L402.69-8.51Q406.27-8.51 409.66-10.88L409.66-10.88L409.66-10.88Q411.14-11.90 412.22-13.25ZM433.15 1.28L433.15 1.28L433.15 1.28Q419.07 1.28 419.07-11.97L419.07-11.97L419.07-11.97Q419.07-21.38 424.26-27.46L424.26-27.46L424.26-27.46Q429.76-33.92 439.30-33.92L439.30-33.92L439.30-33.92Q446.21-33.92 449.73-30.72L449.73-30.72L449.73-30.72Q453.25-27.52 453.25-20.80L453.25-20.80L453.25-20.80Q453.25-10.56 447.74-4.61L447.74-4.61L447.74-4.61Q442.37 1.28 433.15 1.28ZM434.82-26.56L434.82-26.56L434.82-26.56Q434.05-24.83 433.44-22.24L433.44-22.24L433.44-22.24Q432.83-19.65 432.06-15.55L432.06-15.55L432.06-15.55Q431.30-11.46 431.30-6.40L431.30-6.40L431.30-6.40Q431.30-4.74 431.84-3.65L431.84-3.65L431.84-3.65Q432.38-2.56 433.86-2.56L433.86-2.56L433.86-2.56Q435.33-2.56 436.26-3.26L436.26-3.26L436.26-3.26Q437.18-3.97 437.89-5.63L437.89-5.63L437.89-5.63Q439.17-8.58 440.19-14.05L440.19-14.05L440.19-14.05Q441.22-19.52 441.31-21.89L441.31-21.89L441.31-21.89Q441.41-24.26 441.41-26.02L441.41-26.02L441.41-26.02Q441.41-27.78 440.90-28.93L440.90-28.93L440.90-28.93Q440.38-30.08 438.94-30.08L438.94-30.08L438.94-30.08Q437.50-30.08 436.54-29.18L436.54-29.18L436.54-29.18Q435.58-28.29 434.82-26.56ZM477.18-33.92L477.18-33.92L477.18-33.92Q479.49-33.92 481.28-33.41L481.28-33.41L481.28-33.41Q481.34-33.66 481.47-34.37L481.47-34.37L481.79-36.35L481.79-36.35Q482.05-37.63 482.43-39.74L482.43-39.74L483.46-44.80L496.19-46.08L489.09-8.96L489.09-8.96Q489.02-8.58 489.02-7.94L489.02-7.94L489.02-6.91L489.02-6.91Q489.02-5.50 489.73-4.45L489.73-4.45L489.73-4.45Q490.43-3.39 491.58-3.39L491.58-3.39L491.58-3.39Q490.30-0.38 486.40 0.90L486.40 0.90L486.40 0.90Q485.06 1.28 483.17 1.28L483.17 1.28L483.17 1.28Q481.28 1.28 479.55 0.29L479.55 0.29L479.55 0.29Q477.82-0.70 477.31-2.37L477.31-2.37L477.31-2.37Q476.29-0.70 474.24 0.29L474.24 0.29L474.24 0.29Q472.19 1.28 469.22 1.28L469.22 1.28L469.22 1.28Q466.24 1.28 463.78 0.51L463.78 0.51L463.78 0.51Q461.31-0.26 459.78-1.92L459.78-1.92L459.78-1.92Q456.96-5.18 456.96-12.61L456.96-12.61L456.96-12.61Q456.96-22.21 462.59-28.03L462.59-28.03L462.59-28.03Q468.22-33.92 477.18-33.92ZM476.74-30.08L476.74-30.08L476.74-30.08Q474.37-30.08 473.09-27.52L473.09-27.52L473.09-27.52Q471.81-24.96 470.50-18.62L470.50-18.62L470.50-18.62Q469.18-12.29 469.18-6.59L469.18-6.59L469.18-6.59Q469.18-2.69 471.49-2.69L471.49-2.69L471.49-2.69Q473.54-2.69 474.98-4.74L474.98-4.74L474.98-4.74Q476.42-6.78 476.99-10.18L476.99-10.18L480.45-28.93L480.45-28.93Q479.10-30.08 476.74-30.08ZM522.94-10.82L522.94-10.82L522.94-10.82Q524.54-9.73 524.54-7.33L524.54-7.33L524.54-7.33Q524.54-4.93 523.33-3.39L523.33-3.39L523.33-3.39Q522.11-1.86 520.13-0.83L520.13-0.83L520.13-0.83Q516.03 1.28 511.62 1.28L511.62 1.28L511.62 1.28Q507.20 1.28 504.61 0.32L504.61 0.32L504.61 0.32Q502.02-0.64 500.29-2.43L500.29-2.43L500.29-2.43Q496.90-5.82 496.90-12.03L496.90-12.03L496.90-12.03Q496.90-21.70 502.14-27.58L502.14-27.58L502.14-27.58Q507.78-33.92 517.57-33.92L517.57-33.92L517.57-33.92Q523.65-33.92 526.66-31.36L526.66-31.36L526.66-31.36Q528.90-29.44 528.90-26.30L528.90-26.30L528.90-26.30Q528.90-15.04 509.44-15.04L509.44-15.04L509.44-15.04Q509.18-13.38 509.18-11.97L509.18-11.97L509.18-11.97Q509.18-9.02 510.50-7.90L510.50-7.90L510.50-7.90Q511.81-6.78 514.24-6.78L514.24-6.78L514.24-6.78Q516.67-6.78 519.26-7.90L519.26-7.90L519.26-7.90Q521.86-9.02 522.94-10.82ZM509.89-17.79L509.89-17.79L509.89-17.79Q514.43-17.79 517.06-20.61L517.06-20.61L517.06-20.61Q519.68-23.30 519.68-27.58L519.68-27.58L519.68-27.58Q519.68-29.06 519.14-29.86L519.14-29.86L519.14-29.86Q518.59-30.66 517.50-30.66L517.50-30.66L517.50-30.66Q516.42-30.66 515.49-30.24L515.49-30.24L515.49-30.24Q514.56-29.82 513.60-28.42L513.60-28.42L513.60-28.42Q511.23-25.22 509.89-17.79Z" fill="url(#editing-outline-gradient)"></path></g></g><style>text {
  font-size: 64px;
  font-family: Arial Black;
  dominant-baseline: central;
  text-anchor: middle;
}</style></svg>