<svg xmlns="http://www.w3.org/2000/svg" xmlns:xlink="http://www.w3.org/1999/xlink" viewBox="0 0 109 151" fill="#fff" fill-rule="evenodd" stroke="#000" stroke-linecap="round" stroke-linejoin="round"><style><![CDATA[.B{stroke:none}.C{fill:#fdcc9b}.D{text-anchor:start}.E{font-weight:bold}]]></style><use xlink:href="#A" x=".5" y=".5"/><symbol id="A" overflow="visible"><g class="B"><path d="M53.976 150H0c0-11.33 28.43-27.99 53.976-27.99s53.976 16.66 53.976 27.99z" fill="#66b2ff"/><path d="M53.976 122.01c-5.433 0-10.997.76-16.4 2.055.036.048 5.982 7.72 16.4 7.72 9.638 0 16.045-6.57 16.974-7.58-5.575-1.384-11.344-2.195-16.974-2.195z" fill="#007fff"/><path d="M92.952 67.5q9.5 0 9.5 9-1.5 13-13 12 0-21 3.5-21z" class="C"/></g><path d="M13.952 67.5q-9.5 0-9.5 9 1.5 13 13 12 0-21-3.5-21z" class="B C"/><g class="B"><path d="M97.07 49.818c0-18.214-13.328-31.543-43.093-31.543S10.883 31.603 10.883 49.818s-3.1 66.196 43.094 66.196S97.07 68.033 97.07 49.818z" class="C"/><path d="M25.524 57.814c2.206 1.103 5.748-3.748 13.856.472 1.478.77 2.36-6.58-6.33-6.58-7.525 0-8.858 5.442-7.525 6.108zm56.904 0c-2.206 1.103-5.748-3.748-13.855.472-1.478.77-2.36-6.58 6.33-6.58 7.524 0 8.857 5.442 7.524 6.108z" fill="#262626"/><path d="M52.827 88.875c-4.6 0-6.237-4.87-6.237-3.205s1.333 4.832 7.386 4.832 7.386-3.165 7.386-4.832-3.285 4.705-7.285 2.58z" fill="#fcbc85"/><path d="M89.405 14.388S73.412-5.936 40.17 1.727 4.44 29.382 5.44 48.832 12.3 90.4 15.452 89s-1.682-24.965-1.35-27.928 3.332-16.363 23.55-14.363S76.077 38 76.077 38s5.685 12.046 10.198 13.707C95.293 55.025 89.92 88.5 93.452 88.5s23.276-62.45-4.047-74.11z" fill="#262626"/><path d="M28.822 70.476c0-2.83 1.48-5.1 3.315-5.1s3.315 2.28 3.315 5.1-1.48 5.1-3.315 5.1-3.315-2.28-3.315-5.1zm43.5-.576c0-2.83 1.478-5.1 3.315-5.1s3.315 2.28 3.315 5.1-1.478 5.1-3.315 5.1-3.315-2.28-3.315-5.1z" fill="#000"/><g fill="#646464"><circle cx="31.39" cy="68.938" r="1.438"/><circle cx="74.64" cy="68.688" r="1.438"/></g><path d="M53.462 104.63c-2.425 0-3.282-1.11-3.282-.73s.7 1.1 3.886 1.1 3.886-.72 3.886-1.1-1.728 1.07-3.833.587z" fill="#fcbc85"/><path d="M42.452 114v9.25q12 10 22.75-.25v-8.5z" class="C"/></g><g class="B"><path d="M64.77 99.086a.84.84 0 0 0-.697-.019A25.76 25.76 0 0 1 54.521 101c-5.233 0-9.5-1.914-9.552-1.933-.2-.095-.502-.087-.697.02s-.24.283-.103.42C44.3 99.648 47.7 103 54.52 103s10.212-3.352 10.353-3.496c.135-.137.092-.312-.103-.42" fill="#f7945e"/><path d="M30.897 60.337l1.79.002c7.408.513 17.81 2.917 20.348 2.864 5.996-.124 14.078-2.458 20.702-2.988l1.25-.12c7.397-.373 17.332.43 19.1.924 2.24.627 2.307.787 2.352 2.28s-.287 2.785-1.645 3.173c-1.855.522-1.943 2.528-3.367 8.274-1.292 5.233-4.13 9.38-15.645 10.148-.43.053-1.003.04-1.4.04-10.31.26-13.363-5.76-14.466-7.704-2.03-3.607-1.27-8.486-6.978-8.478s-5.223 4.986-7.54 8.592C44.17 79.265 40.47 85.002 30.398 85c-.494-.007-1.012-.06-1.598-.06-11.46-.725-13.978-4.853-14.872-10.086-.994-5.737-.94-7.744-2.75-8.265-1.313-.38-1.557-1.662-1.402-3.165s.232-1.662 2.53-2.3c1.79-.46 11.275-1.1 18.59-.79zm0 1.447c6.017.22 12.412 1.313 14.52 3.885 3.5 4.217-2.794 14.533-8.48 16.796-2.01.735-4.428 1.05-6.637 1.024-5.267 0-10.918-1.5-12.894-4.772-2.772-4.58-3.158-13.817.706-15.76 1.667-.84 7.02-1.386 12.784-1.172zm44.1 0c5.808-.256 11.536.252 13.16 1.092 3.698 1.918 2.616 11.165-.497 15.753-2.208 3.182-7.883 4.8-13.06 4.87-2.32.037-4.633-.323-6.746-1.096-5.52-2.272-11.04-12.562-7.198-16.796 2.307-2.555 8.36-3.566 14.344-3.823z" fill="#4f4f4f"/></g></symbol></svg>